<svg width="466" height="278" viewBox="0 0 466 278" fill="none" xmlns="http://www.w3.org/2000/svg">
<path d="M206 260.5C143.612 258.931 377.633 257.011 380.5 143C383.367 28.9892 220.612 3.43108 283 5.00002C345.389 6.56896 467.867 40.5586 465 154.569C462.133 268.58 223 283.5 206 260.5Z" fill="black"/>
<path d="M408.915 83.4808C419.114 145.05 306.591 31.5042 194.078 50.1424C81.5644 68.7805 11.6662 212.545 1.46709 150.976C-8.732 89.4064 74.2102 24.3855 186.724 5.74737C299.237 -12.8908 398.716 21.9116 408.915 83.4808Z" fill="black"/>
<path d="M3.35508 138.919C10.5205 76.9238 87.3894 217.085 200.682 230.179C313.975 243.273 420.789 124.343 413.624 186.338C406.458 248.334 308.808 287.976 195.515 274.881C82.2227 261.787 -3.81036 200.915 3.35508 138.919Z" fill="black"/>
<path d="M241.453 100.498C316.427 107.539 357.257 97.1987 378.758 91.3163C379.462 91.1235 380.146 90.9358 380.808 90.7537C385.202 89.5458 388.678 88.5905 391.419 88.1001C394.601 87.5309 396.619 87.6263 397.901 88.5111C399.16 89.3809 399.872 91.1358 400.079 94.3869C400.284 97.6147 399.985 102.151 399.401 108.373C398.217 120.978 403.64 132.574 409.993 142.599C412.516 146.579 415.196 150.329 417.677 153.8C418.322 154.702 418.954 155.586 419.566 156.449C422.543 160.653 425.041 164.375 426.413 167.584C427.787 170.798 427.969 173.348 426.561 175.334C425.122 177.364 421.915 178.978 416.033 179.987C404.305 181.998 382.507 181.52 345.047 178.002C285.258 172.387 224.075 175.541 172.46 178.202C159.377 178.876 146.908 179.519 135.233 179.979C106.34 181.118 82.3419 181.138 65.8657 177.782C57.626 176.104 51.333 173.594 47.2496 170.012C43.1958 166.457 41.2863 161.817 41.8558 155.752C43.0166 143.393 46.7195 132.919 53.9178 124.362C61.1182 115.803 71.8527 109.118 87.1529 104.404C117.777 94.9675 166.557 93.4642 241.453 100.498Z" fill="black" stroke="black"/>
</svg>
